<?xml version="1.0" standalone="no"?>
<!DOCTYPE svg PUBLIC "-//W3C//DTD SVG 20010904//EN"
 "http://www.w3.org/TR/2001/REC-SVG-20010904/DTD/svg10.dtd">
<svg version="1.0" xmlns="http://www.w3.org/2000/svg"
 width="692.000000pt" height="186.000000pt" viewBox="0 0 692.000000 186.000000"
 preserveAspectRatio="xMidYMid meet">

<g transform="translate(0.000000,186.000000) scale(0.100000,-0.100000)"
fill="rgb(63,120,255)" stroke="none">
<path d="M4008 1090 l2 -540 140 0 140 0 0 540 0 540 -142 0 -143 0 3 -540z"/>
<path d="M3293 1571 c-263 -75 -397 -352 -332 -685 23 -119 112 -242 210 -292
49 -24 155 -54 197 -54 21 0 22 3 22 105 0 102 -1 105 -24 111 -33 8 -71 50
-97 109 -31 68 -39 274 -15 357 20 68 68 136 107 150 l29 10 0 104 c0 119 6
114 -97 85z"/>
<path d="M3430 1486 l0 -104 35 -6 c41 -8 89 -53 106 -101 l13 -35 134 0 135
0 -6 45 c-23 161 -205 305 -387 305 l-30 0 0 -104z"/>
<path d="M390 1475 l0 -105 405 0 405 0 0 105 0 105 -405 0 -405 0 0 -105z"/>
<path d="M1567 1339 c-150 -35 -252 -156 -278 -330 -30 -202 70 -397 227 -446
85 -26 239 -23 315 6 71 27 132 79 169 145 50 85 49 86 -92 86 l-121 0 -37
-40 c-33 -36 -42 -40 -83 -40 -35 0 -51 5 -67 22 -22 24 -40 77 -40 121 l0 27
246 0 247 0 -6 78 c-11 159 -77 281 -178 333 -83 42 -215 59 -302 38z m185
-199 c10 -14 21 -42 25 -63 l6 -37 -112 0 c-121 0 -119 -1 -101 59 17 59 36
72 103 69 51 -3 63 -7 79 -28z"/>
<path d="M4419 1337 c-20 -8 -50 -24 -68 -36 -30 -22 -31 -24 -31 -102 0 -43
2 -79 5 -79 2 0 15 5 29 11 14 7 40 9 60 5 63 -12 66 -29 66 -326 l0 -260 130
0 130 0 0 304 c0 322 -3 351 -51 417 -45 64 -185 98 -270 66z"/>
<path d="M5167 1339 c-88 -21 -182 -99 -228 -191 -81 -161 -51 -403 64 -516
52 -51 134 -89 210 -98 l57 -7 -1 97 -1 97 -38 19 c-60 31 -75 73 -75 212 0
132 10 158 78 191 l37 19 0 94 0 94 -32 -1 c-18 -1 -50 -5 -71 -10z"/>
<path d="M5307 1344 c-4 -4 -7 -47 -7 -95 l0 -87 37 -19 c47 -23 73 -59 84
-114 12 -62 11 -157 -2 -204 -12 -41 -69 -105 -95 -105 -11 0 -14 -19 -14 -96
l0 -97 38 6 c216 35 336 181 335 407 -2 185 -85 322 -228 378 -57 22 -138 36
-148 26z"/>
<path d="M6232 1332 c-29 -11 -69 -34 -88 -53 -19 -18 -34 -29 -35 -23 0 5 -1
26 -1 47 l0 37 -145 0 c-139 0 -143 -1 -133 -19 6 -13 10 -201 10 -540 l0
-521 135 0 136 0 -1 168 c0 92 -1 171 0 175 0 5 12 -1 28 -11 75 -54 201 -64
286 -22 52 24 122 93 147 142 47 93 64 275 35 383 -50 187 -216 293 -374 237z
m47 -217 c41 -35 56 -85 55 -190 0 -92 -8 -120 -47 -162 -30 -33 -105 -32
-144 1 l-28 24 -3 149 c-3 139 -2 150 18 176 30 38 104 39 149 2z"/>
<path d="M2180 1250 l0 -90 305 0 305 0 0 90 0 90 -305 0 -305 0 0 -90z"/>
<path d="M658 940 l2 -390 135 0 135 0 0 390 0 390 -137 0 -138 0 3 -390z"/>
<path d="M2483 1106 c-10 -13 -87 -103 -170 -201 l-153 -177 0 -89 0 -89 329
0 329 0 11 75 c6 42 11 82 11 90 0 13 -31 15 -201 15 l-201 0 44 52 c23 29 94
111 156 183 63 71 118 138 123 148 9 16 0 17 -125 17 -130 0 -135 -1 -153 -24z"/>
<path d="M3571 861 c-15 -51 -62 -98 -106 -107 l-35 -6 0 -104 0 -104 31 0
c108 0 254 67 313 145 34 44 72 128 80 178 l7 37 -139 0 -139 0 -12 -39z"/>
</g>
</svg>
